<?xml version="1.0" standalone="no"?>
<svg xmlns:xlink="http://www.w3.org/1999/xlink" id="wave" style="transform:rotate(0deg); transition: 0.3s" viewBox="0 0 1440 490" version="1.1" xmlns="http://www.w3.org/2000/svg"><defs><linearGradient id="sw-gradient-0" x1="0" x2="0" y1="1" y2="0"><stop stop-color="rgba(0, 182.143, 255, 1)" offset="0%"/><stop stop-color="rgba(0, 185.786, 255, 1)" offset="100%"/></linearGradient></defs><path style="transform:translate(0, 0px); opacity:1" fill="url(#sw-gradient-0)" d="M0,147L80,171.5C160,196,320,245,480,228.7C640,212,800,131,960,106.2C1120,82,1280,114,1440,130.7C1600,147,1760,147,1920,187.8C2080,229,2240,310,2400,285.8C2560,261,2720,131,2880,89.8C3040,49,3200,98,3360,114.3C3520,131,3680,114,3840,130.7C4000,147,4160,196,4320,204.2C4480,212,4640,180,4800,196C4960,212,5120,278,5280,253.2C5440,229,5600,114,5760,114.3C5920,114,6080,229,6240,302.2C6400,376,6560,408,6720,367.5C6880,327,7040,212,7200,155.2C7360,98,7520,98,7680,89.8C7840,82,8000,65,8160,106.2C8320,147,8480,245,8640,285.8C8800,327,8960,310,9120,318.5C9280,327,9440,359,9600,318.5C9760,278,9920,163,10080,147C10240,131,10400,212,10560,220.5C10720,229,10880,163,11040,147C11200,131,11360,163,11440,179.7L11520,196L11520,490L11440,490C11360,490,11200,490,11040,490C10880,490,10720,490,10560,490C10400,490,10240,490,10080,490C9920,490,9760,490,9600,490C9440,490,9280,490,9120,490C8960,490,8800,490,8640,490C8480,490,8320,490,8160,490C8000,490,7840,490,7680,490C7520,490,7360,490,7200,490C7040,490,6880,490,6720,490C6560,490,6400,490,6240,490C6080,490,5920,490,5760,490C5600,490,5440,490,5280,490C5120,490,4960,490,4800,490C4640,490,4480,490,4320,490C4160,490,4000,490,3840,490C3680,490,3520,490,3360,490C3200,490,3040,490,2880,490C2720,490,2560,490,2400,490C2240,490,2080,490,1920,490C1760,490,1600,490,1440,490C1280,490,1120,490,960,490C800,490,640,490,480,490C320,490,160,490,80,490L0,490Z"/></svg>